<svg data-v-423bf9ae="" xmlns="http://www.w3.org/2000/svg" viewBox="0 0 301.1571284702846 60" class="font"><!----><!----><!----><g data-v-423bf9ae="" id="58cfd4e2-0600-49c7-b166-7bf181f897ce" fill="white" transform="matrix(4.285714285714286,0,0,4.285714285714286,-5.100003174373086,-7.200000524520874)"><path d="M1.19 2.80L1.19 12.60L1.96 12.60L1.96 7.76L7.77 7.76L7.77 12.60L8.54 12.60L8.54 2.80L7.77 2.80L7.77 7.00L1.96 7.00L1.96 2.80ZM11.00 7.35C11.61 6.91 12.30 6.69 13.06 6.69C14.11 6.69 14.63 7.12 14.63 7.98L14.63 9.06C14.13 8.80 13.55 8.67 12.89 8.67C12.19 8.67 11.57 8.85 11.03 9.21C10.49 9.58 10.22 10.08 10.22 10.71C10.22 11.37 10.44 11.88 10.89 12.22C11.34 12.57 11.83 12.74 12.36 12.74C12.91 12.74 13.39 12.63 13.80 12.40C14.20 12.17 14.48 11.85 14.63 11.44L14.63 12.60L15.33 12.60L15.33 7.98C15.33 6.67 14.57 6.02 13.06 6.02C12.15 6.02 11.33 6.29 10.60 6.82ZM10.93 10.71C10.93 10.25 11.12 9.89 11.49 9.63C11.87 9.37 12.35 9.24 12.95 9.24C13.50 9.24 14.06 9.35 14.63 9.56L14.63 10.08C14.63 10.67 14.43 11.15 14.03 11.53C13.63 11.91 13.14 12.10 12.57 12.10C12.08 12.10 11.68 11.97 11.38 11.72C11.08 11.47 10.93 11.13 10.93 10.71ZM23.59 9.38C23.59 8.37 23.29 7.56 22.70 6.96C22.11 6.35 21.36 6.05 20.47 6.05C19.91 6.05 19.42 6.18 18.99 6.45C18.57 6.72 18.23 7.10 17.99 7.57L17.99 6.16L17.29 6.16L17.29 15.68L17.99 15.68L17.99 11.19C18.23 11.66 18.57 12.04 18.99 12.31C19.42 12.58 19.91 12.71 20.47 12.71C21.36 12.71 22.11 12.41 22.70 11.80C23.29 11.20 23.59 10.39 23.59 9.38ZM22.88 9.38C22.88 10.23 22.65 10.88 22.19 11.33C21.73 11.79 21.14 12.01 20.40 12.01C19.77 12.01 19.22 11.78 18.73 11.31C18.24 10.85 17.99 10.20 17.99 9.38C17.99 8.56 18.24 7.91 18.73 7.45C19.22 6.98 19.77 6.75 20.40 6.75C21.14 6.75 21.73 6.97 22.19 7.43C22.65 7.88 22.88 8.53 22.88 9.38ZM31.50 9.38C31.50 8.37 31.20 7.56 30.61 6.96C30.02 6.35 29.27 6.05 28.38 6.05C27.82 6.05 27.33 6.18 26.90 6.45C26.48 6.72 26.14 7.10 25.90 7.57L25.90 6.16L25.20 6.16L25.20 15.68L25.90 15.68L25.90 11.19C26.14 11.66 26.48 12.04 26.90 12.31C27.33 12.58 27.82 12.71 28.38 12.71C29.27 12.71 30.02 12.41 30.61 11.80C31.20 11.20 31.50 10.39 31.50 9.38ZM30.79 9.38C30.79 10.23 30.56 10.88 30.10 11.33C29.64 11.79 29.05 12.01 28.31 12.01C27.68 12.01 27.13 11.78 26.64 11.31C26.15 10.85 25.90 10.20 25.90 9.38C25.90 8.56 26.15 7.91 26.64 7.45C27.13 6.98 27.68 6.75 28.31 6.75C29.05 6.75 29.64 6.97 30.10 7.43C30.56 7.88 30.79 8.53 30.79 9.38ZM32.13 6.16L34.85 12.26L33.32 15.68L34.09 15.68L38.29 6.16L37.48 6.16L35.22 11.44L32.93 6.16ZM43.75 9.60L43.05 9.90C43.34 10.77 43.75 11.45 44.30 11.96C44.84 12.46 45.50 12.71 46.27 12.71C47.19 12.71 47.91 12.45 48.42 11.92C48.93 11.39 49.18 10.76 49.18 10.01C49.18 8.79 48.36 7.85 46.70 7.20C45.17 6.58 44.41 5.84 44.41 4.98C44.41 4.51 44.57 4.13 44.91 3.86C45.24 3.58 45.71 3.44 46.33 3.44C46.88 3.44 47.33 3.62 47.68 3.98C48.03 4.33 48.29 4.76 48.45 5.25L49.13 4.90C48.99 4.33 48.66 3.82 48.16 3.37C47.66 2.91 47.04 2.69 46.31 2.69C45.50 2.69 44.85 2.90 44.35 3.32C43.86 3.74 43.61 4.31 43.61 5.04C43.61 5.67 43.84 6.21 44.31 6.66C44.78 7.12 45.31 7.47 45.92 7.70C46.29 7.85 46.59 7.97 46.80 8.07C47.01 8.17 47.25 8.32 47.54 8.51C47.82 8.71 48.03 8.94 48.17 9.20C48.30 9.46 48.37 9.76 48.37 10.11C48.37 10.62 48.19 11.05 47.82 11.40C47.46 11.74 46.97 11.91 46.37 11.91C45.68 11.91 45.14 11.72 44.76 11.34C44.38 10.96 44.04 10.38 43.75 9.60ZM51.16 7.35C51.76 6.91 52.45 6.69 53.21 6.69C54.26 6.69 54.78 7.12 54.78 7.98L54.78 9.06C54.28 8.80 53.70 8.67 53.05 8.67C52.35 8.67 51.73 8.85 51.18 9.21C50.64 9.58 50.37 10.08 50.37 10.71C50.37 11.37 50.60 11.88 51.04 12.22C51.49 12.57 51.98 12.74 52.51 12.74C53.06 12.74 53.54 12.63 53.95 12.40C54.36 12.17 54.63 11.85 54.78 11.44L54.78 12.60L55.48 12.60L55.48 7.98C55.48 6.67 54.73 6.02 53.21 6.02C52.30 6.02 51.48 6.29 50.75 6.82ZM51.09 10.71C51.09 10.25 51.27 9.89 51.65 9.63C52.02 9.37 52.50 9.24 53.10 9.24C53.65 9.24 54.21 9.35 54.78 9.56L54.78 10.08C54.78 10.67 54.58 11.15 54.18 11.53C53.78 11.91 53.29 12.10 52.72 12.10C52.23 12.10 51.83 11.97 51.53 11.72C51.24 11.47 51.09 11.13 51.09 10.71ZM57.51 1.68L57.51 12.60L58.21 12.60L58.21 1.68ZM65.18 8.85L60.63 8.85C60.66 8.25 60.90 7.74 61.33 7.33C61.77 6.91 62.32 6.71 62.99 6.71C63.62 6.71 64.13 6.92 64.52 7.34C64.91 7.76 65.13 8.26 65.18 8.85ZM60.61 9.48L65.91 9.48C65.92 9.43 65.93 9.38 65.93 9.32C65.93 8.33 65.65 7.53 65.11 6.94C64.56 6.34 63.85 6.05 62.99 6.05C62.05 6.05 61.30 6.36 60.74 6.98C60.17 7.60 59.89 8.40 59.89 9.38C59.89 10.34 60.20 11.14 60.81 11.77C61.42 12.40 62.17 12.71 63.06 12.71C64.23 12.71 65.17 12.18 65.88 11.10L65.32 10.65C65.09 11.07 64.78 11.41 64.38 11.65C63.98 11.90 63.56 12.03 63.13 12.03C62.39 12.03 61.79 11.79 61.33 11.30C60.87 10.82 60.62 10.22 60.61 9.48ZM67.59 10.35L66.98 10.58C67.09 11.17 67.35 11.67 67.76 12.09C68.17 12.50 68.72 12.71 69.40 12.71C70.00 12.71 70.49 12.56 70.88 12.26C71.26 11.95 71.46 11.51 71.46 10.92C71.46 10.07 70.88 9.40 69.72 8.92C69.37 8.78 69.16 8.69 69.09 8.65C68.44 8.35 68.11 7.99 68.11 7.57C68.11 7.31 68.21 7.10 68.41 6.95C68.61 6.80 68.91 6.72 69.30 6.72C69.51 6.72 69.69 6.75 69.85 6.80C70.00 6.85 70.14 6.94 70.25 7.06C70.36 7.19 70.45 7.29 70.50 7.38C70.56 7.46 70.63 7.60 70.73 7.78L71.33 7.45C71.19 7.05 70.95 6.71 70.60 6.45C70.26 6.18 69.82 6.05 69.29 6.05C68.75 6.05 68.31 6.19 67.95 6.47C67.59 6.75 67.41 7.14 67.41 7.64C67.41 8.10 67.57 8.47 67.89 8.75C68.22 9.03 68.65 9.28 69.20 9.49C69.44 9.59 69.63 9.66 69.77 9.73C69.90 9.80 70.06 9.89 70.22 10.01C70.39 10.13 70.52 10.28 70.59 10.44C70.67 10.61 70.71 10.80 70.71 11.02C70.71 11.33 70.60 11.57 70.36 11.75C70.13 11.93 69.80 12.03 69.38 12.03C68.91 12.03 68.51 11.86 68.20 11.52C67.89 11.19 67.69 10.79 67.59 10.35Z"></path></g><!----><!----></svg>